<?xml version="1.0" encoding="UTF-8" standalone="no"?>
<svg width="826px" height="114px" viewBox="0 0 826 114" version="1.1" xmlns="http://www.w3.org/2000/svg" xmlns:xlink="http://www.w3.org/1999/xlink" xmlns:sketch="http://www.bohemiancoding.com/sketch/ns">
    <!-- Generator: Sketch 3.3.3 (12072) - http://www.bohemiancoding.com/sketch -->
    <title>Untitled 2</title>
    <desc>Created with Sketch.</desc>
    <defs>
        <path id="path-1" d="M0.06,0.898 L825.165,0.898 L825.165,113.94 L0.06,113.94"></path>
    </defs>
    <g id="Page-1" stroke="none" stroke-width="1" fill="none" fill-rule="evenodd" sketch:type="MSPage">
        <g id="RGB_OneColour_TheRothschildFoundation_Secondary" sketch:type="MSLayerGroup">
            <path d="M122.855,42.184 L115.702,42.376 C112.918,42.471 111.766,42.712 111.046,43.768 C110.566,44.489 110.326,45.063 110.23,45.448 C110.134,45.833 109.99,46.024 109.702,46.024 C109.366,46.024 109.27,45.784 109.27,45.256 C109.27,44.489 110.182,40.12 110.278,39.735 C110.422,39.112 110.566,38.823 110.854,38.823 C111.238,38.823 111.718,39.303 112.918,39.399 C114.31,39.544 116.134,39.639 117.718,39.639 L136.728,39.639 C138.264,39.639 139.32,39.495 140.041,39.399 C140.76,39.256 141.145,39.159 141.336,39.159 C141.672,39.159 141.721,39.448 141.721,40.169 C141.721,41.176 141.577,44.489 141.577,45.737 C141.528,46.215 141.433,46.504 141.145,46.504 C140.76,46.504 140.665,46.264 140.616,45.544 L140.568,45.016 C140.472,43.768 139.176,42.424 134.904,42.329 L128.855,42.184 L128.855,61.866 C128.855,66.282 128.855,70.075 129.095,72.139 C129.239,73.483 129.527,74.538 130.968,74.731 C131.64,74.827 132.696,74.922 133.416,74.922 C133.944,74.922 134.184,75.067 134.184,75.307 C134.184,75.643 133.8,75.786 133.272,75.786 C130.104,75.786 127.079,75.643 125.735,75.643 C124.631,75.643 121.607,75.786 119.687,75.786 C119.063,75.786 118.727,75.643 118.727,75.307 C118.727,75.067 118.918,74.922 119.495,74.922 C120.215,74.922 120.791,74.827 121.223,74.731 C122.183,74.538 122.471,73.483 122.615,72.09 C122.855,70.075 122.855,66.282 122.855,61.866 L122.855,42.184" id="Fill-1" fill="#FFFFFF" sketch:type="MSShapeGroup"></path>
            <path d="M167.882,60.393 C167.966,60.393 168.092,60.352 168.092,60.141 L168.092,59.385 C168.092,53.967 168.05,52.665 168.008,51.53 C167.924,50.313 167.588,49.934 166.412,49.598 C166.117,49.514 165.487,49.471 164.983,49.471 C164.563,49.471 164.353,49.346 164.353,49.094 C164.353,48.842 164.605,48.758 165.151,48.758 C167.125,48.758 169.73,48.842 170.696,48.842 C171.579,48.842 174.015,48.758 175.443,48.758 C175.989,48.758 176.241,48.842 176.241,49.094 C176.241,49.346 175.989,49.471 175.569,49.471 C175.275,49.471 174.939,49.514 174.477,49.598 C173.511,49.766 173.217,50.27 173.133,51.53 C173.049,52.665 173.049,53.672 173.049,59.092 L173.049,65.393 C173.049,68.669 173.049,71.483 173.217,73.038 C173.343,74.046 173.553,74.719 174.687,74.887 C175.191,74.971 175.989,75.012 176.577,75.012 C176.956,75.012 177.166,75.223 177.166,75.391 C177.166,75.643 176.871,75.768 176.409,75.768 C174.015,75.768 171.579,75.643 170.57,75.643 C169.73,75.643 167.125,75.768 165.697,75.768 C165.193,75.768 164.899,75.643 164.899,75.391 C164.899,75.223 165.067,75.012 165.487,75.012 C166.075,75.012 166.496,74.971 166.832,74.887 C167.588,74.719 167.798,74.046 167.924,72.997 C168.092,71.483 168.092,68.753 168.092,65.477 L168.092,62.747 C168.092,62.62 167.966,62.536 167.882,62.536 L153.935,62.536 C153.809,62.536 153.683,62.579 153.683,62.747 L153.683,65.477 C153.683,68.753 153.725,71.483 153.893,73.038 C154.019,74.046 154.229,74.719 155.321,74.887 C155.826,74.971 156.666,75.012 157.212,75.012 C157.632,75.012 157.8,75.223 157.8,75.391 C157.8,75.643 157.506,75.768 157.044,75.768 C154.649,75.768 152.087,75.643 151.037,75.643 C150.197,75.643 147.76,75.768 146.29,75.768 C145.828,75.768 145.576,75.643 145.576,75.391 C145.576,75.223 145.702,75.012 146.164,75.012 C146.71,75.012 147.13,74.971 147.466,74.887 C148.222,74.719 148.432,74.046 148.558,72.997 C148.726,71.483 148.726,68.669 148.726,65.393 L148.726,59.092 C148.726,53.672 148.726,52.665 148.684,51.53 C148.6,50.313 148.264,49.934 147.088,49.598 C146.794,49.514 146.164,49.471 145.618,49.471 C145.24,49.471 144.988,49.346 144.988,49.094 C144.988,48.842 145.282,48.758 145.786,48.758 C147.76,48.758 150.197,48.842 151.205,48.842 C152.087,48.842 154.649,48.758 156.12,48.758 C156.624,48.758 156.876,48.842 156.876,49.094 C156.876,49.346 156.666,49.471 156.204,49.471 C155.91,49.471 155.574,49.514 155.153,49.598 C154.146,49.766 153.851,50.27 153.767,51.53 C153.683,52.665 153.683,53.967 153.683,59.385 L153.683,60.141 C153.683,60.352 153.809,60.393 153.935,60.393 L167.882,60.393" id="Fill-2" fill="#FFFFFF" sketch:type="MSShapeGroup"></path>
            <path d="M185.14,59.092 C185.14,53.672 185.14,52.665 185.098,51.53 C185.014,50.313 184.678,49.934 183.501,49.598 C183.208,49.514 182.578,49.471 182.031,49.471 C181.653,49.471 181.401,49.346 181.401,49.094 C181.401,48.842 181.695,48.758 182.241,48.758 C184.174,48.758 186.526,48.842 187.576,48.842 C188.752,48.842 196.944,48.883 197.658,48.842 C198.33,48.799 198.918,48.674 199.212,48.631 C199.422,48.59 199.632,48.463 199.8,48.463 C200.011,48.463 200.053,48.631 200.053,48.799 C200.053,49.051 199.842,49.471 199.758,51.11 C199.716,51.489 199.632,53.044 199.548,53.463 C199.506,53.631 199.422,54.051 199.128,54.051 C198.876,54.051 198.834,53.883 198.834,53.588 C198.834,53.337 198.792,52.706 198.583,52.286 C198.288,51.657 197.994,51.153 196.146,50.985 C195.516,50.901 191.105,50.817 190.349,50.817 C190.181,50.817 190.097,50.942 190.097,51.153 L190.097,59.973 C190.097,60.184 190.139,60.352 190.349,60.352 C191.189,60.352 195.978,60.352 196.818,60.268 C197.7,60.184 198.246,60.1 198.583,59.721 C198.876,59.469 199.002,59.26 199.17,59.26 C199.338,59.26 199.464,59.428 199.464,59.637 C199.464,59.848 199.38,60.436 199.17,62.243 C199.086,62.956 199.002,64.385 199.002,64.637 C199.002,64.93 198.96,65.434 198.625,65.434 C198.372,65.434 198.288,65.309 198.288,65.141 C198.246,64.762 198.246,64.301 198.162,63.838 C197.952,63.124 197.49,62.579 196.104,62.452 C195.432,62.368 191.231,62.284 190.307,62.284 C190.139,62.284 190.097,62.452 190.097,62.663 L190.097,65.518 C190.097,66.737 190.055,69.762 190.097,70.811 C190.181,73.249 191.315,73.794 195.096,73.794 C196.062,73.794 197.616,73.753 198.583,73.333 C199.506,72.913 199.926,72.157 200.179,70.686 C200.263,70.307 200.347,70.139 200.599,70.139 C200.893,70.139 200.935,70.602 200.935,70.979 C200.935,71.778 200.641,74.213 200.431,74.928 C200.179,75.852 199.842,75.852 198.456,75.852 C195.684,75.852 193.458,75.811 191.651,75.727 C189.845,75.684 188.458,75.643 187.366,75.643 C186.946,75.643 186.148,75.684 185.266,75.684 C184.384,75.727 183.459,75.768 182.704,75.768 C182.241,75.768 181.989,75.643 181.989,75.391 C181.989,75.223 182.115,75.012 182.578,75.012 C183.124,75.012 183.543,74.971 183.88,74.887 C184.636,74.719 184.846,74.046 184.972,72.997 C185.14,71.483 185.14,68.669 185.14,65.393 L185.14,59.092" id="Fill-3" fill="#FFFFFF" sketch:type="MSShapeGroup"></path>
            <path d="M229.419,57.21 C229.419,57.737 229.515,57.928 229.851,58.073 C230.859,58.409 232.299,58.553 233.5,58.553 C235.419,58.553 236.043,58.362 236.908,57.737 C238.348,56.68 239.74,54.473 239.74,50.536 C239.74,43.719 235.228,41.753 232.395,41.753 C231.195,41.753 230.331,41.799 229.851,41.944 C229.515,42.04 229.419,42.231 229.419,42.616 L229.419,57.21 L229.419,57.21 Z M223.754,53.417 C223.754,46.12 223.754,44.776 223.659,43.241 C223.563,41.608 223.178,40.84 221.594,40.504 C221.21,40.407 220.394,40.36 219.722,40.36 C219.194,40.36 218.906,40.264 218.906,39.928 C218.906,39.592 219.242,39.495 219.962,39.495 C222.506,39.495 225.531,39.639 226.539,39.639 C228.171,39.639 231.819,39.495 233.307,39.495 C236.332,39.495 239.548,39.784 242.14,41.559 C243.484,42.471 245.404,44.921 245.404,48.135 C245.404,51.688 243.917,54.954 239.068,58.889 C243.34,64.266 246.652,68.538 249.485,71.514 C252.173,74.299 254.141,74.635 254.861,74.778 C255.389,74.874 255.821,74.922 256.206,74.922 C256.589,74.922 256.781,75.067 256.781,75.307 C256.781,75.69 256.445,75.786 255.869,75.786 L251.309,75.786 C248.621,75.786 247.42,75.547 246.172,74.874 C244.108,73.77 242.284,71.514 239.596,67.819 C237.676,65.178 235.467,61.913 234.843,61.194 C234.604,60.905 234.315,60.858 233.979,60.858 L229.803,60.762 C229.563,60.762 229.419,60.858 229.419,61.145 L229.419,61.817 C229.419,66.282 229.419,70.075 229.659,72.09 C229.803,73.483 230.091,74.538 231.531,74.731 C232.251,74.827 233.307,74.922 233.883,74.922 C234.268,74.922 234.459,75.067 234.459,75.307 C234.459,75.643 234.124,75.786 233.5,75.786 C230.715,75.786 227.163,75.643 226.443,75.643 C225.531,75.643 222.506,75.786 220.586,75.786 C219.962,75.786 219.626,75.643 219.626,75.307 C219.626,75.067 219.818,74.922 220.394,74.922 C221.114,74.922 221.69,74.827 222.123,74.731 C223.083,74.538 223.322,73.483 223.515,72.09 C223.754,70.075 223.754,66.282 223.754,61.866 L223.754,53.417 L223.754,53.417 Z" id="Fill-4" fill="#FFFFFF" sketch:type="MSShapeGroup"></path>
            <path d="M279.258,62.915 C279.258,55.016 274.511,50.145 268.546,50.145 C264.429,50.145 259.599,52.329 259.599,61.151 C259.599,68.501 263.799,74.297 270.772,74.297 C273.377,74.297 279.258,73.081 279.258,62.915 L279.258,62.915 Z M254.137,62.243 C254.137,56.151 258.422,48.254 269.638,48.254 C278.964,48.254 284.761,53.421 284.761,61.612 C284.761,69.803 278.796,76.231 269.26,76.231 C258.506,76.231 254.137,68.585 254.137,62.243 L254.137,62.243 Z" id="Fill-5" fill="#FFFFFF" sketch:type="MSShapeGroup"></path>
            <path d="M297.063,50.942 L291.561,51.069 C289.418,51.11 288.536,51.362 287.99,52.161 C287.612,52.665 287.444,53.128 287.36,53.379 C287.276,53.672 287.192,53.84 286.94,53.84 C286.688,53.84 286.604,53.631 286.604,53.253 C286.604,52.665 287.318,49.219 287.402,48.926 C287.486,48.463 287.612,48.254 287.822,48.254 C288.116,48.254 288.494,48.547 289.418,48.674 C290.51,48.799 291.896,48.842 293.115,48.842 L308.111,48.842 C309.288,48.842 310.086,48.758 310.632,48.674 C311.22,48.59 311.514,48.506 311.64,48.506 C311.892,48.506 311.934,48.715 311.934,49.262 C311.934,50.018 311.85,52.665 311.85,53.588 C311.808,53.967 311.724,54.176 311.514,54.176 C311.22,54.176 311.136,54.008 311.094,53.463 L311.052,53.085 C310.968,52.161 310.002,51.069 306.683,51.026 L302.021,50.942 L302.021,65.393 C302.021,68.669 302.063,71.483 302.23,73.038 C302.356,74.046 302.566,74.719 303.659,74.887 C304.163,74.971 305.003,75.012 305.549,75.012 C305.969,75.012 306.137,75.223 306.137,75.391 C306.137,75.643 305.843,75.768 305.423,75.768 C302.987,75.768 300.508,75.643 299.458,75.643 C298.618,75.643 296.097,75.768 294.627,75.768 C294.165,75.768 293.913,75.643 293.913,75.391 C293.913,75.223 294.039,75.012 294.501,75.012 C295.047,75.012 295.509,74.971 295.803,74.887 C296.56,74.719 296.77,74.046 296.896,72.997 C297.063,71.483 297.063,68.669 297.063,65.393 L297.063,50.942" id="Fill-6" fill="#FFFFFF" sketch:type="MSShapeGroup"></path>
            <path d="M337.89,60.393 C337.974,60.393 338.1,60.352 338.1,60.141 L338.1,59.385 C338.1,53.967 338.058,52.665 338.016,51.53 C337.932,50.313 337.596,49.934 336.42,49.598 C336.125,49.514 335.496,49.471 334.992,49.471 C334.571,49.471 334.361,49.346 334.361,49.094 C334.361,48.842 334.613,48.758 335.16,48.758 C337.134,48.758 339.738,48.842 340.705,48.842 C341.586,48.842 344.023,48.758 345.451,48.758 C345.998,48.758 346.25,48.842 346.25,49.094 C346.25,49.346 345.998,49.471 345.577,49.471 C345.283,49.471 344.947,49.514 344.485,49.598 C343.519,49.766 343.225,50.27 343.141,51.53 C343.057,52.665 343.057,53.672 343.057,59.092 L343.057,65.393 C343.057,68.669 343.057,71.483 343.225,73.038 C343.351,74.046 343.561,74.719 344.695,74.887 C345.199,74.971 345.998,75.012 346.585,75.012 C346.963,75.012 347.174,75.223 347.174,75.391 C347.174,75.643 346.879,75.768 346.417,75.768 C344.023,75.768 341.586,75.643 340.579,75.643 C339.738,75.643 337.134,75.768 335.706,75.768 C335.202,75.768 334.908,75.643 334.908,75.391 C334.908,75.223 335.076,75.012 335.496,75.012 C336.083,75.012 336.504,74.971 336.84,74.887 C337.596,74.719 337.806,74.046 337.932,72.997 C338.1,71.483 338.1,68.753 338.1,65.477 L338.1,62.747 C338.1,62.62 337.974,62.536 337.89,62.536 L323.943,62.536 C323.817,62.536 323.691,62.579 323.691,62.747 L323.691,65.477 C323.691,68.753 323.733,71.483 323.901,73.038 C324.027,74.046 324.238,74.719 325.33,74.887 C325.834,74.971 326.674,75.012 327.22,75.012 C327.64,75.012 327.808,75.223 327.808,75.391 C327.808,75.643 327.514,75.768 327.052,75.768 C324.658,75.768 322.095,75.643 321.045,75.643 C320.205,75.643 317.769,75.768 316.298,75.768 C315.836,75.768 315.584,75.643 315.584,75.391 C315.584,75.223 315.71,75.012 316.172,75.012 C316.718,75.012 317.138,74.971 317.475,74.887 C318.23,74.719 318.44,74.046 318.566,72.997 C318.735,71.483 318.735,68.669 318.735,65.393 L318.735,59.092 C318.735,53.672 318.735,52.665 318.692,51.53 C318.608,50.313 318.272,49.934 317.096,49.598 C316.802,49.514 316.172,49.471 315.626,49.471 C315.248,49.471 314.996,49.346 314.996,49.094 C314.996,48.842 315.29,48.758 315.794,48.758 C317.769,48.758 320.205,48.842 321.213,48.842 C322.095,48.842 324.658,48.758 326.128,48.758 C326.632,48.758 326.884,48.842 326.884,49.094 C326.884,49.346 326.674,49.471 326.212,49.471 C325.918,49.471 325.582,49.514 325.162,49.598 C324.154,49.766 323.859,50.27 323.775,51.53 C323.691,52.665 323.691,53.967 323.691,59.385 L323.691,60.141 C323.691,60.352 323.817,60.393 323.943,60.393 L337.89,60.393" id="Fill-7" fill="#FFFFFF" sketch:type="MSShapeGroup"></path>
            <path d="M353.132,75.307 C352.544,75.055 352.417,74.887 352.417,74.088 C352.417,72.157 352.586,69.93 352.628,69.342 C352.628,68.796 352.796,68.417 353.09,68.417 C353.426,68.417 353.468,68.753 353.468,69.006 C353.468,69.467 353.594,70.223 353.804,70.854 C354.602,73.501 357.375,74.383 359.685,74.383 C362.877,74.383 364.81,72.366 364.81,69.846 C364.81,68.292 364.432,66.737 361.155,64.805 L359.013,63.544 C354.644,60.983 353.216,58.588 353.216,55.436 C353.216,51.069 357.417,48.254 362.542,48.254 C364.936,48.254 366.826,48.59 367.792,48.842 C368.128,48.926 368.296,49.051 368.296,49.303 C368.296,49.766 368.17,50.774 368.17,53.588 C368.17,54.344 368.002,54.723 367.708,54.723 C367.457,54.723 367.331,54.512 367.331,54.092 C367.331,53.756 367.162,52.665 366.364,51.741 C365.818,51.069 364.642,50.059 362.248,50.059 C359.601,50.059 357.207,51.446 357.207,53.883 C357.207,55.479 357.794,56.739 361.113,58.588 L362.625,59.428 C367.499,62.116 369.011,64.846 369.011,68.081 C369.011,70.727 368.002,72.87 365.314,74.76 C363.55,76.02 361.113,76.231 359.139,76.231 C356.997,76.231 354.728,76.02 353.132,75.307" id="Fill-8" fill="#FFFFFF" sketch:type="MSShapeGroup"></path>
            <path d="M378.417,72.366 C374.761,69.299 373.795,65.266 373.795,61.823 C373.795,59.385 374.593,55.184 378.122,52.034 C380.811,49.682 384.338,48.254 389.842,48.254 C392.153,48.254 393.539,48.422 395.219,48.631 C396.605,48.842 397.823,49.094 398.916,49.219 C399.335,49.262 399.461,49.43 399.461,49.639 C399.461,49.934 399.377,50.354 399.293,51.614 C399.209,52.79 399.209,54.764 399.167,55.479 C399.125,55.983 399,56.362 398.664,56.362 C398.37,56.362 398.286,56.067 398.286,55.606 C398.244,54.471 397.782,53.212 396.858,52.286 C395.597,51.069 393.119,50.186 389.715,50.186 C386.481,50.186 384.422,50.774 382.743,52.202 C380.012,54.555 379.34,57.999 379.34,61.487 C379.34,69.971 385.893,74.004 390.85,74.004 C394.127,74.004 395.933,73.753 397.403,72.114 C398.034,71.399 398.538,70.391 398.664,69.719 C398.748,69.174 398.832,69.006 399.125,69.006 C399.377,69.006 399.545,69.342 399.545,69.635 C399.545,70.055 399.125,73.165 398.748,74.383 C398.58,75.012 398.412,75.18 397.782,75.432 C396.311,76.02 393.497,76.231 391.102,76.231 C386.061,76.231 381.776,75.18 378.417,72.366" id="Fill-9" fill="#FFFFFF" sketch:type="MSShapeGroup"></path>
            <path d="M426.592,60.393 C426.676,60.393 426.803,60.352 426.803,60.141 L426.803,59.385 C426.803,53.967 426.76,52.665 426.719,51.53 C426.635,50.313 426.299,49.934 425.123,49.598 C424.829,49.514 424.198,49.471 423.694,49.471 C423.274,49.471 423.064,49.346 423.064,49.094 C423.064,48.842 423.316,48.758 423.862,48.758 C425.836,48.758 428.441,48.842 429.408,48.842 C430.29,48.842 432.726,48.758 434.154,48.758 C434.701,48.758 434.953,48.842 434.953,49.094 C434.953,49.346 434.701,49.471 434.28,49.471 C433.986,49.471 433.65,49.514 433.188,49.598 C432.222,49.766 431.927,50.27 431.843,51.53 C431.759,52.665 431.759,53.672 431.759,59.092 L431.759,65.393 C431.759,68.669 431.759,71.483 431.927,73.038 C432.054,74.046 432.263,74.719 433.398,74.887 C433.902,74.971 434.701,75.012 435.289,75.012 C435.667,75.012 435.876,75.223 435.876,75.391 C435.876,75.643 435.582,75.768 435.121,75.768 C432.726,75.768 430.29,75.643 429.281,75.643 C428.441,75.643 425.836,75.768 424.409,75.768 C423.905,75.768 423.61,75.643 423.61,75.391 C423.61,75.223 423.778,75.012 424.198,75.012 C424.786,75.012 425.207,74.971 425.542,74.887 C426.299,74.719 426.508,74.046 426.635,72.997 C426.803,71.483 426.803,68.753 426.803,65.477 L426.803,62.747 C426.803,62.62 426.676,62.536 426.592,62.536 L412.646,62.536 C412.52,62.536 412.394,62.579 412.394,62.747 L412.394,65.477 C412.394,68.753 412.436,71.483 412.604,73.038 C412.73,74.046 412.94,74.719 414.032,74.887 C414.537,74.971 415.376,75.012 415.922,75.012 C416.342,75.012 416.51,75.223 416.51,75.391 C416.51,75.643 416.217,75.768 415.754,75.768 C413.36,75.768 410.797,75.643 409.748,75.643 C408.908,75.643 406.471,75.768 405,75.768 C404.539,75.768 404.287,75.643 404.287,75.391 C404.287,75.223 404.413,75.012 404.875,75.012 C405.42,75.012 405.84,74.971 406.177,74.887 C406.933,74.719 407.143,74.046 407.269,72.997 C407.437,71.483 407.437,68.669 407.437,65.393 L407.437,59.092 C407.437,53.672 407.437,52.665 407.395,51.53 C407.311,50.313 406.975,49.934 405.799,49.598 C405.504,49.514 404.875,49.471 404.329,49.471 C403.951,49.471 403.699,49.346 403.699,49.094 C403.699,48.842 403.993,48.758 404.497,48.758 C406.471,48.758 408.908,48.842 409.916,48.842 C410.797,48.842 413.36,48.758 414.831,48.758 C415.334,48.758 415.586,48.842 415.586,49.094 C415.586,49.346 415.376,49.471 414.915,49.471 C414.621,49.471 414.285,49.514 413.864,49.598 C412.856,49.766 412.562,50.27 412.478,51.53 C412.394,52.665 412.394,53.967 412.394,59.385 L412.394,60.141 C412.394,60.352 412.52,60.393 412.646,60.393 L426.592,60.393" id="Fill-10" fill="#FFFFFF" sketch:type="MSShapeGroup"></path>
            <path d="M443.851,59.092 C443.851,53.672 443.851,52.665 443.808,51.53 C443.724,50.313 443.347,49.891 442.548,49.639 C442.128,49.514 441.667,49.471 441.205,49.471 C440.826,49.471 440.617,49.387 440.617,49.051 C440.617,48.842 440.91,48.758 441.499,48.758 C442.884,48.758 445.406,48.842 446.455,48.842 C447.379,48.842 449.774,48.758 451.203,48.758 C451.664,48.758 451.958,48.842 451.958,49.051 C451.958,49.387 451.748,49.471 451.371,49.471 C450.992,49.471 450.699,49.514 450.278,49.598 C449.27,49.766 448.976,50.27 448.892,51.53 C448.808,52.665 448.808,53.672 448.808,59.092 L448.808,65.393 C448.808,68.837 448.808,71.694 448.976,73.206 C449.101,74.172 449.354,74.719 450.446,74.887 C450.951,74.971 451.791,75.012 452.336,75.012 C452.756,75.012 452.924,75.223 452.924,75.391 C452.924,75.643 452.63,75.768 452.21,75.768 C449.774,75.768 447.253,75.643 446.246,75.643 C445.406,75.643 442.884,75.768 441.415,75.768 C440.953,75.768 440.701,75.643 440.701,75.391 C440.701,75.223 440.826,75.012 441.289,75.012 C441.834,75.012 442.254,74.971 442.591,74.887 C443.347,74.719 443.556,74.213 443.683,73.165 C443.851,71.694 443.851,68.837 443.851,65.393 L443.851,59.092" id="Fill-11" fill="#FFFFFF" sketch:type="MSShapeGroup"></path>
            <path d="M465.902,65.393 C465.902,69.971 465.902,72.241 466.7,72.913 C467.33,73.458 468.757,73.669 471.615,73.669 C473.589,73.669 475.017,73.626 475.941,72.661 C476.404,72.198 476.781,71.19 476.865,70.518 C476.908,70.182 476.992,69.971 477.286,69.971 C477.538,69.971 477.622,70.35 477.622,70.77 C477.622,71.19 477.37,73.837 477.076,74.887 C476.824,75.684 476.656,75.852 474.723,75.852 C472.077,75.852 469.934,75.811 468.085,75.727 C466.238,75.684 464.683,75.643 463.171,75.643 C462.751,75.643 461.953,75.684 461.071,75.684 C460.189,75.727 459.264,75.768 458.508,75.768 C458.046,75.768 457.794,75.643 457.794,75.391 C457.794,75.223 457.919,75.012 458.382,75.012 C458.928,75.012 459.348,74.971 459.685,74.887 C460.441,74.719 460.65,74.046 460.777,72.997 C460.945,71.483 460.945,68.669 460.945,65.393 L460.945,59.092 C460.945,53.672 460.945,52.665 460.902,51.53 C460.818,50.313 460.482,49.934 459.306,49.598 C459.012,49.514 458.55,49.471 458.087,49.471 C457.667,49.471 457.458,49.346 457.458,49.094 C457.458,48.842 457.71,48.758 458.256,48.758 C459.978,48.758 462.332,48.842 463.339,48.842 C464.221,48.842 467.246,48.758 468.673,48.758 C469.22,48.758 469.472,48.842 469.472,49.094 C469.472,49.346 469.262,49.471 468.8,49.471 C468.38,49.471 467.792,49.514 467.372,49.598 C466.364,49.766 466.07,50.27 465.986,51.53 C465.902,52.665 465.902,53.672 465.902,59.092 L465.902,65.393" id="Fill-12" fill="#FFFFFF" sketch:type="MSShapeGroup"></path>
            <path d="M489.085,63.04 C489.085,66.821 489.126,69.551 489.169,70.266 C489.211,71.147 489.295,72.409 489.589,72.786 C490.051,73.458 491.522,74.213 494.42,74.213 C497.781,74.213 500.259,73.626 502.486,71.778 C504.879,69.803 505.636,66.612 505.636,62.915 C505.636,58.378 503.83,55.436 502.191,54.008 C498.789,50.985 494.756,50.606 491.858,50.606 C491.101,50.606 489.883,50.69 489.589,50.858 C489.253,50.985 489.126,51.153 489.126,51.573 C489.085,52.79 489.085,55.731 489.085,58.546 L489.085,63.04 L489.085,63.04 Z M484.128,59.092 C484.128,53.672 484.128,52.665 484.085,51.53 C484.001,50.313 483.666,49.934 482.49,49.598 C482.196,49.514 481.566,49.471 481.019,49.471 C480.642,49.471 480.39,49.346 480.39,49.094 C480.39,48.842 480.683,48.758 481.23,48.758 C483.162,48.758 485.515,48.842 486.564,48.842 C487.699,48.842 490.345,48.758 492.572,48.758 C497.193,48.758 503.41,48.758 507.442,52.833 C509.291,54.68 510.929,57.663 510.929,61.907 C510.929,66.401 508.997,69.803 506.896,71.862 C505.216,73.542 501.309,76.063 494.504,76.063 C493.16,76.063 491.564,75.936 490.093,75.852 C488.623,75.727 487.279,75.643 486.355,75.643 C485.935,75.643 485.136,75.684 484.254,75.684 C483.373,75.727 482.448,75.768 481.692,75.768 C481.23,75.768 480.978,75.643 480.978,75.391 C480.978,75.223 481.103,75.012 481.566,75.012 C482.112,75.012 482.532,74.971 482.869,74.887 C483.625,74.719 483.833,74.046 483.96,72.997 C484.128,71.483 484.128,68.669 484.128,65.393 L484.128,59.092 L484.128,59.092 Z" id="Fill-13" fill="#FFFFFF" sketch:type="MSShapeGroup"></path>
            <path d="M539.501,61.866 C539.501,66.473 539.501,70.075 539.742,72.09 C539.886,73.483 540.174,74.538 541.614,74.731 C542.286,74.827 543.342,74.922 544.014,74.922 C544.638,74.922 544.831,75.067 544.831,75.307 C544.831,75.643 544.495,75.786 543.774,75.786 C540.75,75.786 537.726,75.643 536.477,75.643 C535.229,75.643 532.206,75.786 530.381,75.786 C529.708,75.786 529.373,75.69 529.373,75.307 C529.373,75.067 529.565,74.922 530.093,74.922 C530.813,74.922 531.389,74.827 531.821,74.731 C532.781,74.538 533.021,73.483 533.213,72.09 C533.454,70.075 533.454,66.473 533.454,61.866 L533.454,53.417 C533.454,46.12 533.454,44.776 533.357,43.241 C533.261,41.608 532.877,40.84 531.293,40.504 C530.909,40.407 530.093,40.36 529.42,40.36 C528.941,40.36 528.605,40.264 528.605,39.975 C528.605,39.592 528.989,39.495 529.708,39.495 C530.958,39.495 532.349,39.544 533.597,39.544 C534.845,39.592 535.95,39.639 536.622,39.639 C538.446,39.639 548.191,39.639 549.294,39.592 C550.207,39.544 550.783,39.544 551.263,39.399 C551.551,39.303 551.791,39.112 552.031,39.112 C552.223,39.112 552.367,39.303 552.367,39.544 C552.367,39.879 552.126,40.456 551.983,41.704 C551.935,42.184 551.838,45.016 551.743,45.592 C551.695,45.975 551.599,46.264 551.263,46.264 C550.926,46.264 550.831,46.024 550.783,45.497 C550.783,45.112 550.783,44.344 550.495,43.672 C550.159,43.001 549.151,42.28 547.327,42.231 L539.934,42.088 C539.646,42.088 539.501,42.231 539.501,42.76 L539.501,54.76 C539.501,55.049 539.549,55.192 539.837,55.192 L545.982,55.145 C546.798,55.145 547.47,55.145 548.142,55.096 C549.054,55.049 549.727,54.856 550.207,54.233 C550.447,53.944 550.542,53.753 550.831,53.753 C551.023,53.753 551.119,53.897 551.119,54.184 C551.119,54.473 550.878,55.672 550.735,57.161 C550.639,58.122 550.542,60.329 550.542,60.665 C550.542,61.098 550.542,61.577 550.063,61.577 C549.775,61.577 549.678,61.241 549.678,60.905 C549.678,60.569 549.583,59.993 549.391,59.417 C549.151,58.745 548.43,57.881 546.943,57.69 C545.743,57.546 540.654,57.546 539.837,57.546 C539.598,57.546 539.501,57.641 539.501,57.977 L539.501,61.866" id="Fill-14" fill="#FFFFFF" sketch:type="MSShapeGroup"></path>
            <path d="M582.573,62.915 C582.573,55.016 577.826,50.145 571.861,50.145 C567.745,50.145 562.914,52.329 562.914,61.151 C562.914,68.501 567.114,74.297 574.087,74.297 C576.692,74.297 582.573,73.081 582.573,62.915 L582.573,62.915 Z M557.453,62.243 C557.453,56.151 561.737,48.254 572.954,48.254 C582.279,48.254 588.076,53.421 588.076,61.612 C588.076,69.803 582.111,76.231 572.575,76.231 C561.821,76.231 557.453,68.585 557.453,62.243 L557.453,62.243 Z" id="Fill-15" fill="#FFFFFF" sketch:type="MSShapeGroup"></path>
            <path d="M594.623,59.092 C594.623,53.672 594.665,52.665 594.581,51.53 C594.497,50.27 594.16,49.934 592.984,49.598 C592.69,49.514 592.06,49.471 591.556,49.471 C591.135,49.471 590.925,49.346 590.925,49.094 C590.925,48.842 591.177,48.758 591.724,48.758 C593.698,48.758 596.176,48.842 597.269,48.842 C598.193,48.842 600.671,48.758 602.015,48.758 C602.562,48.758 602.814,48.842 602.814,49.094 C602.814,49.346 602.604,49.471 602.225,49.471 C601.805,49.471 601.595,49.514 601.133,49.598 C600.167,49.766 599.874,50.27 599.79,51.53 C599.706,52.665 599.706,53.672 599.706,59.092 L599.706,64.09 C599.706,69.299 600.713,71.315 602.52,72.745 C604.158,74.046 605.922,74.172 607.182,74.172 C608.779,74.172 610.669,73.71 612.139,72.282 C614.198,70.35 614.282,67.241 614.282,63.587 L614.282,59.092 C614.282,53.672 614.24,52.665 614.198,51.53 C614.114,50.313 613.82,49.934 612.643,49.598 C612.349,49.514 611.719,49.471 611.299,49.471 C610.879,49.471 610.669,49.346 610.669,49.094 C610.669,48.842 610.921,48.758 611.425,48.758 C613.316,48.758 615.794,48.842 615.836,48.842 C616.256,48.842 618.735,48.758 620.163,48.758 C620.667,48.758 620.918,48.842 620.918,49.094 C620.918,49.346 620.708,49.471 620.289,49.471 C619.869,49.471 619.659,49.514 619.197,49.598 C618.188,49.766 617.936,50.27 617.852,51.53 C617.81,52.665 617.768,53.672 617.768,59.092 L617.768,62.915 C617.768,66.905 617.348,71.106 614.24,73.669 C611.635,75.852 608.821,76.231 606.426,76.231 C604.494,76.231 600.671,76.147 597.983,73.794 C596.092,72.157 594.623,69.51 594.623,64.342 L594.623,59.092" id="Fill-16" fill="#FFFFFF" sketch:type="MSShapeGroup"></path>
            <path d="M629.609,70.895 C629.693,73.669 630.155,74.508 630.87,74.76 C631.5,74.971 632.213,75.012 632.801,75.012 C633.221,75.012 633.432,75.18 633.432,75.391 C633.432,75.684 633.095,75.768 632.591,75.768 C630.197,75.768 628.475,75.643 627.802,75.643 C627.466,75.643 625.703,75.768 623.812,75.768 C623.308,75.768 622.972,75.727 622.972,75.391 C622.972,75.18 623.224,75.012 623.56,75.012 C624.064,75.012 624.736,74.971 625.24,74.844 C626.207,74.592 626.333,73.626 626.375,70.518 L626.71,49.346 C626.71,48.631 626.962,48.128 627.34,48.128 C627.802,48.128 628.307,48.674 628.937,49.303 C629.399,49.766 634.944,55.436 640.321,60.688 C642.841,63.167 647.756,68.208 648.302,68.712 L648.47,68.712 L648.092,52.833 C648.05,50.649 647.714,50.018 646.833,49.682 C646.286,49.471 645.404,49.471 644.9,49.471 C644.438,49.471 644.312,49.303 644.312,49.094 C644.312,48.799 644.69,48.758 645.236,48.758 C647.168,48.758 649.142,48.842 649.941,48.842 C650.361,48.842 651.747,48.758 653.553,48.758 C654.057,48.758 654.393,48.799 654.393,49.094 C654.393,49.303 654.183,49.471 653.763,49.471 C653.385,49.471 653.091,49.471 652.629,49.598 C651.621,49.891 651.327,50.522 651.285,52.538 L650.865,75.055 C650.865,75.852 650.571,76.188 650.277,76.188 C649.647,76.188 649.142,75.811 648.764,75.432 C646.454,73.29 641.833,68.879 637.968,65.141 C633.936,61.276 630.029,56.95 629.315,56.319 L629.189,56.319 L629.609,70.895" id="Fill-17" fill="#FFFFFF" sketch:type="MSShapeGroup"></path>
            <path d="M667.578,63.04 C667.578,66.821 667.62,69.551 667.662,70.266 C667.704,71.147 667.788,72.409 668.082,72.786 C668.543,73.458 670.014,74.213 672.913,74.213 C676.273,74.213 678.751,73.626 680.978,71.778 C683.373,69.803 684.128,66.612 684.128,62.915 C684.128,58.378 682.323,55.436 680.684,54.008 C677.282,50.985 673.249,50.606 670.35,50.606 C669.594,50.606 668.375,50.69 668.082,50.858 C667.746,50.985 667.62,51.153 667.62,51.573 C667.578,52.79 667.578,55.731 667.578,58.546 L667.578,63.04 L667.578,63.04 Z M662.621,59.092 C662.621,53.672 662.621,52.665 662.579,51.53 C662.495,50.313 662.159,49.934 660.983,49.598 C660.689,49.514 660.058,49.471 659.512,49.471 C659.134,49.471 658.882,49.346 658.882,49.094 C658.882,48.842 659.176,48.758 659.722,48.758 C661.655,48.758 664.007,48.842 665.057,48.842 C666.192,48.842 668.838,48.758 671.064,48.758 C675.685,48.758 681.902,48.758 685.935,52.833 C687.784,54.68 689.421,57.663 689.421,61.907 C689.421,66.401 687.489,69.803 685.389,71.862 C683.708,73.542 679.802,76.063 672.997,76.063 C671.653,76.063 670.056,75.936 668.585,75.852 C667.116,75.727 665.771,75.643 664.847,75.643 C664.427,75.643 663.629,75.684 662.747,75.684 C661.865,75.727 660.941,75.768 660.184,75.768 C659.722,75.768 659.47,75.643 659.47,75.391 C659.47,75.223 659.596,75.012 660.058,75.012 C660.604,75.012 661.025,74.971 661.361,74.887 C662.117,74.719 662.327,74.046 662.453,72.997 C662.621,71.483 662.621,68.669 662.621,65.393 L662.621,59.092 L662.621,59.092 Z" id="Fill-18" fill="#FFFFFF" sketch:type="MSShapeGroup"></path>
            <path d="M707.016,64.805 C707.184,64.805 707.226,64.721 707.184,64.594 L703.698,55.522 C703.656,55.395 703.614,55.184 703.529,55.184 C703.403,55.184 703.361,55.395 703.319,55.522 L699.749,64.553 C699.665,64.721 699.749,64.805 699.875,64.805 L707.016,64.805 L707.016,64.805 Z M699.119,66.78 C698.909,66.78 698.867,66.821 698.783,67.032 L696.808,71.821 C696.43,72.702 696.262,73.585 696.262,74.004 C696.262,74.635 696.598,75.012 697.732,75.012 L698.279,75.012 C698.741,75.012 698.825,75.18 698.825,75.391 C698.825,75.684 698.615,75.768 698.237,75.768 C697.018,75.768 695.295,75.643 694.12,75.643 C693.742,75.643 691.767,75.768 689.834,75.768 C689.373,75.768 689.163,75.684 689.163,75.391 C689.163,75.18 689.289,75.012 689.583,75.012 C689.918,75.012 690.339,74.971 690.675,74.971 C692.355,74.719 692.986,73.626 693.742,71.821 L703.403,49.346 C703.824,48.338 704.118,47.919 704.496,47.919 C705.042,47.919 705.209,48.254 705.587,49.051 C706.47,51.026 712.645,65.645 714.998,71.063 C716.425,74.297 717.476,74.76 718.148,74.887 C718.694,74.971 719.114,75.012 719.534,75.012 C719.871,75.012 720.039,75.139 720.039,75.391 C720.039,75.684 719.829,75.768 718.442,75.768 C717.14,75.768 714.452,75.768 711.342,75.684 C710.67,75.643 710.25,75.643 710.25,75.391 C710.25,75.18 710.334,75.055 710.712,75.012 C710.964,74.971 711.216,74.635 711.048,74.213 L708.192,67.032 C708.108,66.821 707.982,66.78 707.814,66.78 L699.119,66.78 L699.119,66.78 Z" id="Fill-19" fill="#FFFFFF" sketch:type="MSShapeGroup"></path>
            <path d="M726.251,50.942 L720.749,51.069 C718.606,51.11 717.724,51.362 717.178,52.161 C716.8,52.665 716.631,53.128 716.547,53.379 C716.463,53.672 716.379,53.84 716.127,53.84 C715.875,53.84 715.792,53.631 715.792,53.253 C715.792,52.665 716.505,49.219 716.589,48.926 C716.674,48.463 716.8,48.254 717.01,48.254 C717.304,48.254 717.682,48.547 718.606,48.674 C719.699,48.799 721.084,48.842 722.303,48.842 L737.299,48.842 C738.476,48.842 739.274,48.758 739.82,48.674 C740.408,48.59 740.702,48.506 740.829,48.506 C741.081,48.506 741.123,48.715 741.123,49.262 C741.123,50.018 741.039,52.665 741.039,53.588 C740.997,53.967 740.913,54.176 740.702,54.176 C740.408,54.176 740.324,54.008 740.282,53.463 L740.24,53.085 C740.156,52.161 739.19,51.069 735.872,51.026 L731.208,50.942 L731.208,65.393 C731.208,68.669 731.25,71.483 731.418,73.038 C731.544,74.046 731.754,74.719 732.847,74.887 C733.351,74.971 734.191,75.012 734.737,75.012 C735.157,75.012 735.325,75.223 735.325,75.391 C735.325,75.643 735.031,75.768 734.611,75.768 C732.174,75.768 729.696,75.643 728.646,75.643 C727.806,75.643 725.286,75.768 723.815,75.768 C723.353,75.768 723.101,75.643 723.101,75.391 C723.101,75.223 723.227,75.012 723.689,75.012 C724.235,75.012 724.698,74.971 724.992,74.887 C725.748,74.719 725.958,74.046 726.083,72.997 C726.251,71.483 726.251,68.669 726.251,65.393 L726.251,50.942" id="Fill-20" fill="#FFFFFF" sketch:type="MSShapeGroup"></path>
            <path d="M747.922,59.092 C747.922,53.672 747.922,52.665 747.88,51.53 C747.796,50.313 747.418,49.891 746.621,49.639 C746.201,49.514 745.738,49.471 745.276,49.471 C744.898,49.471 744.688,49.387 744.688,49.051 C744.688,48.842 744.982,48.758 745.57,48.758 C746.957,48.758 749.477,48.842 750.527,48.842 C751.452,48.842 753.845,48.758 755.274,48.758 C755.736,48.758 756.03,48.842 756.03,49.051 C756.03,49.387 755.82,49.471 755.442,49.471 C755.064,49.471 754.77,49.514 754.35,49.598 C753.341,49.766 753.047,50.27 752.963,51.53 C752.879,52.665 752.879,53.672 752.879,59.092 L752.879,65.393 C752.879,68.837 752.879,71.694 753.047,73.206 C753.173,74.172 753.425,74.719 754.518,74.887 C755.022,74.971 755.862,75.012 756.408,75.012 C756.829,75.012 756.997,75.223 756.997,75.391 C756.997,75.643 756.703,75.768 756.282,75.768 C753.845,75.768 751.326,75.643 750.317,75.643 C749.477,75.643 746.957,75.768 745.486,75.768 C745.024,75.768 744.772,75.643 744.772,75.391 C744.772,75.223 744.898,75.012 745.36,75.012 C745.907,75.012 746.327,74.971 746.663,74.887 C747.418,74.719 747.628,74.213 747.754,73.165 C747.922,71.694 747.922,68.837 747.922,65.393 L747.922,59.092" id="Fill-21" fill="#FFFFFF" sketch:type="MSShapeGroup"></path>
            <path d="M785.684,62.915 C785.684,55.016 780.937,50.145 774.972,50.145 C770.856,50.145 766.025,52.329 766.025,61.151 C766.025,68.501 770.225,74.297 777.199,74.297 C779.803,74.297 785.684,73.081 785.684,62.915 L785.684,62.915 Z M760.564,62.243 C760.564,56.151 764.848,48.254 776.065,48.254 C785.39,48.254 791.187,53.421 791.187,61.612 C791.187,69.803 785.222,76.231 775.686,76.231 C764.932,76.231 760.564,68.585 760.564,62.243 L760.564,62.243 Z" id="Fill-22" fill="#FFFFFF" sketch:type="MSShapeGroup"></path>
            <g id="Group-26">
                <mask id="mask-2" sketch:name="Clip 24" fill="white">
                    <use xlink:href="#path-1"></use>
                </mask>
                <g id="Clip-24"></g>
                <path d="M800.38,70.895 C800.464,73.669 800.926,74.508 801.641,74.76 C802.271,74.971 802.985,75.012 803.573,75.012 C803.993,75.012 804.204,75.18 804.204,75.391 C804.204,75.684 803.867,75.768 803.363,75.768 C800.968,75.768 799.247,75.643 798.574,75.643 C798.238,75.643 796.474,75.768 794.583,75.768 C794.08,75.768 793.744,75.727 793.744,75.391 C793.744,75.18 793.996,75.012 794.332,75.012 C794.835,75.012 795.507,74.971 796.011,74.844 C796.978,74.592 797.104,73.626 797.146,70.518 L797.482,49.346 C797.482,48.631 797.734,48.128 798.112,48.128 C798.574,48.128 799.079,48.674 799.708,49.303 C800.17,49.766 805.715,55.436 811.092,60.688 C813.613,63.167 818.528,68.208 819.074,68.712 L819.242,68.712 L818.864,52.833 C818.822,50.649 818.486,50.018 817.604,49.682 C817.057,49.471 816.175,49.471 815.671,49.471 C815.209,49.471 815.083,49.303 815.083,49.094 C815.083,48.799 815.461,48.758 816.007,48.758 C817.94,48.758 819.914,48.842 820.712,48.842 C821.132,48.842 822.518,48.758 824.325,48.758 C824.829,48.758 825.165,48.799 825.165,49.094 C825.165,49.303 824.955,49.471 824.535,49.471 C824.157,49.471 823.863,49.471 823.401,49.598 C822.392,49.891 822.098,50.522 822.056,52.538 L821.636,75.055 C821.636,75.852 821.342,76.188 821.048,76.188 C820.418,76.188 819.914,75.811 819.536,75.432 C817.225,73.29 812.605,68.879 808.74,65.141 C804.708,61.276 800.8,56.95 800.086,56.319 L799.96,56.319 L800.38,70.895" id="Fill-23" fill="#FFFFFF" sketch:type="MSShapeGroup" mask="url(#mask-2)"></path>
                <path d="M41.861,95.961 L41.835,61.771 C41.488,61.847 41.117,61.888 40.731,61.888 C40.334,61.888 39.953,61.843 39.596,61.763 L39.57,95.961 L39.559,95.961 L37.757,98.81 L36.709,113.851 C36.709,113.851 38.377,113.673 39.56,110.869 L39.558,114 L41.874,114 L41.871,110.9 C43.052,113.675 44.71,113.851 44.71,113.851 L43.662,98.81 L41.861,95.961 L41.861,95.961 Z M27.984,93.802 L39.494,63.749 C39.494,63.749 39.643,62.276 38.961,62.015 C38.279,61.753 37.404,62.948 37.404,62.948 L25.848,92.982 L23.145,94.996 L16.775,108.664 C16.775,108.664 18.386,109.093 20.483,106.925 L19.371,109.818 L21.533,110.648 L22.653,107.722 C22.752,110.765 24.246,111.531 24.246,111.531 L28.657,97.113 L27.997,93.806 L27.984,93.802 L27.984,93.802 Z M55.576,92.99 L55.576,92.99 L44.019,62.956 C44.019,62.956 43.144,61.763 42.462,62.025 C41.781,62.286 41.93,63.759 41.93,63.759 L53.439,93.81 L53.427,93.816 L52.767,97.121 L57.177,111.541 C57.177,111.541 58.671,110.773 58.771,107.732 L59.89,110.656 L62.054,109.826 L60.941,106.933 C63.039,109.101 64.648,108.673 64.648,108.673 L58.279,95.005 L55.576,92.99 L55.576,92.99 Z M22.543,52.6 L22.543,62.292 C22.543,64.605 24.442,66.634 27.086,66.634 C29.603,66.634 30.779,65.46 30.779,65.46 C28.701,65.743 27.955,63.194 27.955,61.089 L27.955,53.803 C27.955,51.698 28.701,49.149 30.779,49.433 C30.779,49.433 29.603,48.259 27.086,48.259 C24.442,48.259 22.543,50.289 22.543,52.6 L22.543,52.6 Z M58.88,62.302 L58.88,52.609 C58.88,50.297 56.982,48.268 54.337,48.268 C51.82,48.268 50.644,49.441 50.644,49.441 C52.722,49.158 53.468,51.707 53.468,53.812 L53.468,61.099 C53.468,63.204 52.722,65.753 50.644,65.47 C50.644,65.47 51.82,66.642 54.337,66.642 C56.982,66.642 58.88,64.612 58.88,62.302 L58.88,62.302 Z M42.234,58.578 C40.712,60.405 37.923,60.108 37.923,60.108 C37.923,60.108 39.867,59.393 41.531,57.699 C43.093,56.107 43.492,54.79 43.492,54.79 C43.492,54.79 43.915,56.555 42.234,58.578 L42.234,58.578 Z M81.423,96.685 L70.58,86.208 L67.333,85.296 L67.326,85.304 L44.611,60.116 C45.257,59.671 45.71,58.648 45.71,57.455 C45.71,56.26 45.257,55.237 44.611,54.793 L67.425,29.531 C67.543,28.99 67.652,28.178 67.33,27.889 L67.328,27.887 C67.007,27.598 66.21,27.791 65.685,27.963 L42.562,53.723 L42.472,53.825 C42.607,53.961 43.009,54.063 43.5,54.079 C43.418,54.148 43.281,54.231 43.146,54.305 C43.113,54.323 43.081,54.341 43.048,54.358 C43.017,54.375 42.988,54.39 42.958,54.405 C42.296,54.733 41.531,54.921 40.716,54.921 C39.941,54.921 39.213,54.75 38.574,54.452 C38.415,54.373 38.076,54.198 37.925,54.071 C38.415,54.054 38.816,53.952 38.952,53.816 L38.861,53.714 L15.738,27.955 C15.213,27.782 14.416,27.589 14.096,27.879 L14.094,27.88 C13.771,28.17 13.881,28.981 13.998,29.522 L35.848,53.715 L36.82,54.791 C36.172,55.234 35.717,56.258 35.717,57.455 C35.717,58.644 36.167,59.663 36.81,60.11 L14.099,85.296 L14.09,85.286 L10.844,86.2 L0,96.677 C0,96.677 1.359,97.662 4.115,96.369 L2.019,98.693 L3.74,100.242 L5.812,97.937 C4.834,100.791 5.947,102.031 5.947,102.031 L15.232,90.152 L15.801,86.828 L38.551,61.523 C37.983,61.235 37.558,60.837 37.347,60.376 C38.303,60.778 39.461,61.017 40.715,61.017 C41.967,61.017 43.125,60.778 44.081,60.376 C43.871,60.841 43.445,61.243 42.873,61.532 L65.623,86.838 L66.191,90.16 L75.476,102.041 C75.476,102.041 76.589,100.8 75.611,97.947 L77.683,100.252 L79.406,98.701 L77.31,96.377 C80.064,97.67 81.423,96.685 81.423,96.685 L81.423,96.685 Z M21.674,56.121 L21.674,53.463 C21.674,50.455 22.095,50.298 22.247,49.88 C21.566,49.237 20.912,48.599 20.31,48.017 C18.739,46.497 17.283,44.85 14.331,46.102 C14.331,46.102 17.76,52.965 21.674,56.121 L21.674,56.121 Z M52.582,59.108 L52.582,53.971 C52.21,54.138 51.83,54.302 51.435,54.462 C49.98,55.048 48.132,55.667 46.384,56.061 C46.384,56.061 46.689,57.393 46.419,58.674 C46.419,58.674 49.322,59.393 52.582,59.108 L52.582,59.108 Z M29.988,54.453 C29.594,54.294 29.213,54.129 28.842,53.963 L28.842,59.099 C32.102,59.384 35.004,58.666 35.004,58.666 C34.734,57.384 35.04,56.052 35.04,56.052 C33.291,55.658 31.443,55.04 29.988,54.453 L29.988,54.453 Z M67.093,46.111 C64.14,44.859 62.685,46.505 61.113,48.026 C60.511,48.608 59.857,49.246 59.177,49.889 C59.33,50.307 59.75,50.463 59.75,53.471 L59.75,56.129 C63.664,52.974 67.093,46.111 67.093,46.111 L67.093,46.111 Z M68.539,26.541 C67.728,28.122 67.673,30.173 70.41,32.636 C70.49,32.709 70.611,32.707 70.706,32.636 C70.8,32.564 70.841,32.442 70.802,32.34 C70.794,32.319 70.052,30.254 71.986,26.908 C72.665,25.732 73.699,24.285 74.697,22.887 C75.601,21.617 76.459,20.419 77.021,19.468 C78.597,16.805 78.624,15.629 78.624,15.58 C78.624,15.558 78.619,15.488 78.548,15.424 C78.476,15.36 78.406,15.36 78.382,15.363 C78.335,15.369 77.168,15.518 74.685,17.364 C73.798,18.023 72.697,19.001 71.527,20.034 C70.242,21.172 68.91,22.351 67.812,23.151 C64.687,25.423 62.554,24.899 62.533,24.894 C62.427,24.866 62.31,24.92 62.25,25.02 C62.189,25.122 62.201,25.245 62.279,25.316 C65.015,27.78 67.05,27.511 68.539,26.541 L68.539,26.541 Z M9.37,61.13 L13.697,61.13 C13.699,61.597 13.699,62.177 13.699,62.915 C13.699,66.048 9.989,66.101 8.135,66.097 C7.217,66.093 3.104,65.751 3.104,65.751 L8.103,68.726 C6.428,70.517 4.863,71.878 4.863,71.878 C4.863,71.878 7.067,71.812 9.453,71.812 C15.191,71.812 19.709,69.089 19.709,63.46 C19.709,58.103 18.199,56.512 17.285,55.964 C17.199,55.913 16.848,55.642 16.27,55.94 C15.877,56.143 15.783,56.537 15.758,56.689 C15.731,56.839 15.719,57.014 15.719,57.215 C15.719,59.548 15.922,61.003 13.744,61.11 C12.792,60.985 8.88,60.054 8.88,53.156 C8.88,46.729 14.332,44.85 16.369,44.991 C15.104,43.937 12.285,43.655 10.957,43.655 C6.424,43.655 2.537,47.281 2.537,52.934 C2.537,59.714 7.045,61.13 9.37,61.13 L9.37,61.13 Z M72.054,61.138 C74.378,61.138 78.886,59.724 78.886,52.943 C78.886,47.29 75,43.664 70.466,43.664 C69.138,43.664 66.32,43.946 65.054,45 C67.091,44.859 72.544,46.738 72.544,53.165 C72.544,60.064 68.632,60.995 67.679,61.118 C65.501,61.011 65.705,59.556 65.705,57.224 C65.705,57.022 65.693,56.848 65.665,56.698 C65.64,56.546 65.546,56.152 65.154,55.949 C64.576,55.651 64.224,55.921 64.138,55.973 C63.224,56.521 61.714,58.112 61.714,63.468 C61.714,69.099 66.232,71.819 71.97,71.819 C74.357,71.819 76.56,71.886 76.56,71.886 C76.56,71.886 74.996,70.525 73.322,68.735 L78.32,65.759 C78.32,65.759 74.206,66.103 73.289,66.104 C71.435,66.11 67.724,66.058 67.724,62.923 C67.724,62.185 67.724,61.607 67.726,61.138 L72.054,61.138 L72.054,61.138 Z M49.326,19.719 C52.763,21.04 54.568,20.059 55.609,18.621 C55.419,20.386 56.103,22.322 59.54,23.64 C59.64,23.679 59.753,23.633 59.818,23.534 C59.88,23.433 59.873,23.304 59.8,23.223 C59.787,23.206 58.351,21.545 58.958,17.728 C59.171,16.386 59.617,14.666 60.048,13.003 C60.439,11.492 60.808,10.066 60.994,8.977 C61.511,5.926 61.113,4.819 61.097,4.773 C61.089,4.752 61.058,4.689 60.97,4.655 C60.88,4.621 60.814,4.646 60.794,4.657 C60.75,4.679 59.714,5.237 58.058,7.85 C57.468,8.783 56.787,10.09 56.066,11.474 C55.275,12.999 54.455,14.576 53.716,15.715 C51.611,18.958 49.433,19.232 49.412,19.235 C49.302,19.247 49.212,19.338 49.191,19.455 C49.171,19.571 49.226,19.681 49.326,19.719 L49.326,19.719 Z M27.969,20.963 C27.54,20.613 26.866,20.147 26.463,20.302 L26.46,20.303 C26.057,20.459 25.867,21.254 25.782,21.802 L37.469,52.097 C37.469,52.097 38.259,53.367 39.039,53.067 C39.465,52.904 39.578,52.39 39.596,51.958 L39.598,53.786 C39.598,53.786 39.803,54.098 40.716,54.098 C41.629,54.098 41.834,53.786 41.834,53.786 L41.836,52.091 C41.869,52.494 42,52.927 42.386,53.076 C43.165,53.375 43.955,52.105 43.955,52.105 L55.642,21.81 C55.556,21.263 55.367,20.466 54.964,20.312 L54.96,20.311 C54.558,20.156 53.884,20.621 53.455,20.971 L41.868,51.304 C41.868,51.304 41.85,51.413 41.837,51.575 L41.887,18.824 C41.611,18.343 41.149,17.668 40.717,17.668 L40.714,17.668 C40.282,17.668 39.82,18.343 39.545,18.824 L39.595,51.701 C39.586,51.466 39.556,51.296 39.556,51.296 L27.969,20.963 L27.969,20.963 Z M6.728,22.879 C7.726,24.277 8.759,25.723 9.438,26.899 C11.372,30.246 10.629,32.31 10.621,32.332 C10.582,32.433 10.623,32.555 10.717,32.628 C10.813,32.698 10.935,32.7 11.014,32.629 C13.75,30.165 13.695,28.113 12.885,26.532 C14.373,27.503 16.408,27.771 19.145,25.307 C19.224,25.236 19.234,25.114 19.175,25.011 C19.113,24.911 18.996,24.857 18.891,24.885 C18.869,24.89 16.737,25.415 13.611,23.142 C12.514,22.342 11.182,21.164 9.896,20.025 C8.728,18.992 7.625,18.014 6.738,17.356 C4.256,15.509 3.088,15.36 3.041,15.355 C3.019,15.351 2.947,15.351 2.876,15.416 C2.805,15.479 2.799,15.549 2.799,15.571 C2.8,15.62 2.826,16.796 4.402,19.46 C4.965,20.41 5.822,21.608 6.728,22.879 L6.728,22.879 Z M21.376,12.994 C21.807,14.657 22.253,16.378 22.467,17.719 C23.072,21.536 21.638,23.197 21.623,23.214 C21.551,23.296 21.545,23.424 21.606,23.525 C21.67,23.625 21.784,23.671 21.884,23.632 C25.32,22.313 26.005,20.378 25.815,18.612 C26.857,20.051 28.66,21.031 32.098,19.712 C32.197,19.673 32.252,19.563 32.232,19.446 C32.211,19.33 32.121,19.238 32.012,19.226 C31.99,19.223 29.813,18.949 27.708,15.707 C26.97,14.567 26.148,12.99 25.357,11.465 C24.637,10.082 23.957,8.774 23.365,7.842 C21.709,5.228 20.674,4.67 20.63,4.648 C20.61,4.637 20.543,4.612 20.455,4.646 C20.365,4.68 20.335,4.744 20.328,4.764 C20.31,4.81 19.914,5.918 20.431,8.968 C20.615,10.057 20.985,11.484 21.376,12.994 L21.376,12.994 Z M35.241,19.135 C38.924,19.135 40.256,17.575 40.713,15.857 C41.169,17.575 42.501,19.135 46.181,19.135 C46.289,19.135 46.378,19.052 46.402,18.936 C46.423,18.82 46.373,18.702 46.275,18.652 C46.257,18.641 44.322,17.605 43.519,13.824 C43.238,12.495 43.039,10.729 42.843,9.022 C42.668,7.472 42.501,6.007 42.285,4.925 C41.674,1.891 40.906,1 40.873,0.963 C40.859,0.947 40.809,0.898 40.713,0.898 C40.617,0.898 40.565,0.947 40.55,0.963 C40.518,1 39.75,1.891 39.141,4.925 C38.923,6.007 38.757,7.472 38.58,9.022 C38.387,10.729 38.185,12.495 37.904,13.824 C37.102,17.605 35.168,18.641 35.148,18.652 C35.051,18.702 35,18.82 35.021,18.936 C35.045,19.052 35.135,19.135 35.241,19.135 L35.241,19.135 Z" id="Fill-25" fill="#FFFFFF" sketch:type="MSShapeGroup" mask="url(#mask-2)"></path>
            </g>
        </g>
    </g>
</svg>